Normalized EMG Linear Envelopes
nRows=233
nColumns=4

endheader
time	 med_gas_r	  soleus_r	 tib_ant_r	
2.99395	  0.011149	  0.021072	  0.009848	
3.02722	  0.010684	  0.020424	  0.009804	
3.06048	  0.010198	  0.019819	  0.009846	
3.09375	  0.009831	  0.019377	  0.009945	
3.12702	  0.009656	  0.019165	  0.010069	
3.16028	  0.009691	  0.019108	  0.010195	
3.19355	  0.009922	  0.019116	  0.010353	
3.22681	  0.010302	  0.019200	  0.010543	
3.26008	  0.010721	  0.019370	  0.010714	
3.29335	  0.011017	  0.019590	  0.010844	
3.32661	  0.011088	  0.019807	  0.010898	
3.35988	  0.010967	  0.019945	  0.010859	
3.39315	  0.010717	  0.020036	  0.010753	
3.42641	  0.010434	  0.020180	  0.010623	
3.45968	  0.010219	  0.020462	  0.010511	
3.49294	  0.010140	  0.020940	  0.010418	
3.52621	  0.010244	  0.021531	  0.010343	
3.55948	  0.010515	  0.022012	  0.010285	
3.59274	  0.010880	  0.022157	  0.010237	
3.62601	  0.011250	  0.022006	  0.010175	
3.65927	  0.011572	  0.021620	  0.010101	
3.69254	  0.011783	  0.020989	  0.010030	
3.72581	  0.011817	  0.020212	  0.009994	
3.75907	  0.011673	  0.019491	  0.010028	
3.79234	  0.011428	  0.018936	  0.010123	
3.8256	  0.011169	  0.018617	  0.010247	
3.85887	  0.010958	  0.018596	  0.010381	
3.89214	  0.010828	  0.018916	  0.010553	
3.9254	  0.010797	  0.019566	  0.010804	
3.95867	  0.010890	  0.020487	  0.011153	
3.99194	  0.011093	  0.021606	  0.011574	
4.0252	  0.011349	  0.022825	  0.011982	
4.05847	  0.011575	  0.023958	  0.012227	
4.09173	  0.011733	  0.024826	  0.012170	
4.125	  0.011810	  0.025334	  0.011870	
4.15827	  0.011790	  0.025317	  0.011509	
4.19153	  0.011701	  0.024721	  0.011236	
4.2248	  0.011658	  0.023745	  0.011101	
4.25806	  0.011717	  0.022672	  0.011073	
4.29133	  0.011889	  0.021816	  0.011124	
4.3246	  0.012126	  0.021375	  0.011226	
4.35786	  0.012363	  0.021363	  0.011333	
4.39113	  0.012534	  0.021653	  0.011429	
4.4244	  0.012561	  0.022068	  0.011496	
4.45766	  0.012440	  0.022479	  0.011525	
4.49093	  0.012208	  0.022853	  0.011485	
4.52419	  0.011881	  0.023293	  0.011342	
4.55746	  0.011514	  0.023940	  0.011124	
4.59073	  0.011193	  0.024791	  0.010864	
4.62399	  0.010973	  0.025750	  0.010573	
4.65726	  0.010848	  0.026692	  0.010237	
4.69052	  0.010772	  0.027490	  0.009822	
4.72379	  0.010767	  0.027966	  0.009294	
4.75706	  0.010874	  0.027870	  0.008604	
4.79032	  0.011074	  0.027129	  0.007696	
4.82359	  0.011303	  0.025819	  0.006542	
4.85685	  0.011482	  0.024167	  0.005139	
4.89012	  0.011580	  0.022459	  0.003544	
4.92339	  0.011610	  0.020940	  0.001891	
4.95665	  0.011559	  0.019802	  0.000461	
4.98992	  0.011475	  0.019180	 -0.000236	
5.02319	  0.011439	  0.019237	  0.000581	
5.05645	  0.011499	  0.020251	  0.004015	
5.08972	  0.011740	  0.022541	  0.011460	
5.12298	  0.012298	  0.026444	  0.024417	
5.15625	  0.013255	  0.032240	  0.044319	
5.18952	  0.014644	  0.040013	  0.072159	
5.22278	  0.016453	  0.049520	  0.107834	
5.25605	  0.018584	  0.059998	  0.149714	
5.28931	  0.020877	  0.070598	  0.195265	
5.32258	  0.023282	  0.081264	  0.241519	
5.35585	  0.025884	  0.092580	  0.285619	
5.38911	  0.028814	  0.104763	  0.324550	
5.42238	  0.032116	  0.117437	  0.356622	
5.45565	  0.035859	  0.130726	  0.381618	
5.48891	  0.040056	  0.145014	  0.401331	
5.52218	  0.044497	  0.160083	  0.418804	
5.55544	  0.048899	  0.174581	  0.437210	
5.58871	  0.052882	  0.187361	  0.458974	
5.62198	  0.056304	  0.199147	  0.484873	
5.65524	  0.059108	  0.210015	  0.513823	
5.68851	  0.061472	  0.219403	  0.542300	
5.72177	  0.063363	  0.225921	  0.567433	
5.75504	  0.064942	  0.229736	  0.585092	
5.78831	  0.066389	  0.231637	  0.592727	
5.82157	  0.067695	  0.233302	  0.594232	
5.85484	  0.069109	  0.236703	  0.594821	
5.8881	  0.070717	  0.242157	  0.598361	
5.92137	  0.072711	  0.249912	  0.605311	
5.95464	  0.075167	  0.259923	  0.614812	
5.9879	  0.078107	  0.272418	  0.623566	
6.02117	  0.081236	  0.286687	  0.627885	
6.05444	  0.084265	  0.302206	  0.627893	
6.0877	  0.086747	  0.317121	  0.623921	
6.12097	  0.088073	  0.328877	  0.618445	
6.15423	  0.087969	  0.336712	  0.613458	
6.1875	  0.086776	  0.341940	  0.609243	
6.22077	  0.084847	  0.345338	  0.604356	
6.25403	  0.082319	  0.346099	  0.601219	
6.2873	  0.079436	  0.342729	  0.603933	
6.32056	  0.076775	  0.336203	  0.611689	
6.35383	  0.074515	  0.327309	  0.622522	
6.3871	  0.072452	  0.315880	  0.634750	
6.42036	  0.070696	  0.301684	  0.647380	
6.45363	  0.069266	  0.283821	  0.654648	
6.4869	  0.068177	  0.263721	  0.650252	
6.52016	  0.067701	  0.244706	  0.632014	
6.55343	  0.067870	  0.228189	  0.602443	
6.58669	  0.068358	  0.214692	  0.567314	
6.61996	  0.069126	  0.205658	  0.532780	
6.65323	  0.070362	  0.202595	  0.503646	
6.68649	  0.072235	  0.206525	  0.482659	
6.71976	  0.074880	  0.217986	  0.472519	
6.75302	  0.078278	  0.236310	  0.474327	
6.78629	  0.082057	  0.259260	  0.488060	
6.81956	  0.085507	  0.283087	  0.511170	
6.85282	  0.088115	  0.304511	  0.537158	
6.88609	  0.089576	  0.320163	  0.559621	
6.91935	  0.089660	  0.328601	  0.575028	
6.95262	  0.088092	  0.328947	  0.583663	
6.98589	  0.084257	  0.317769	  0.586223	
7.01915	  0.078300	  0.296218	  0.584525	
7.05242	  0.071645	  0.270790	  0.580364	
7.08569	  0.065985	  0.247662	  0.575216	
7.11895	  0.062647	  0.231553	  0.570185	
7.15222	  0.062063	  0.224589	  0.566736	
7.18548	  0.063860	  0.226163	  0.566524	
7.21875	  0.067058	  0.233758	  0.571540	
7.25202	  0.070616	  0.243768	  0.581382	
7.28528	  0.073994	  0.254209	  0.594355	
7.31855	  0.077240	  0.266651	  0.607197	
7.35181	  0.080521	  0.283087	  0.614089	
7.38508	  0.083811	  0.303762	  0.612639	
7.41835	  0.086943	  0.326424	  0.605237	
7.45161	  0.089920	  0.347656	  0.592050	
7.48488	  0.093037	  0.365716	  0.573296	
7.51815	  0.095988	  0.377588	  0.551394	
7.55141	  0.098171	  0.380887	  0.530650	
7.58468	  0.099256	  0.377006	  0.513615	
7.61794	  0.098734	  0.366510	  0.500588	
7.65121	  0.096141	  0.349261	  0.491955	
7.68448	  0.091453	  0.325484	  0.487708	
7.71774	  0.085498	  0.298076	  0.489077	
7.75101	  0.079224	  0.270004	  0.497359	
7.78427	  0.073681	  0.245790	  0.510486	
7.81754	  0.069316	  0.228313	  0.525094	
7.85081	  0.066339	  0.218346	  0.539170	
7.88407	  0.064996	  0.216233	  0.551386	
7.91734	  0.065183	  0.221450	  0.559728	
7.9506	  0.066470	  0.233060	  0.563424	
7.98387	  0.068802	  0.250847	  0.564059	
8.01714	  0.072090	  0.273137	  0.564031	
8.0504	  0.075964	  0.295992	  0.566419	
8.08367	  0.079853	  0.315050	  0.571679	
8.11694	  0.083248	  0.328290	  0.576457	
8.1502	  0.085868	  0.336393	  0.577788	
8.18347	  0.087862	  0.342022	  0.574245	
8.21673	  0.088965	  0.345875	  0.565349	
8.25	  0.088318	  0.344759	  0.554828	
8.28327	  0.085673	  0.337256	  0.547003	
8.31653	  0.081818	  0.326459	  0.545209	
8.3498	  0.077706	  0.314557	  0.550942	
8.38306	  0.074207	  0.302906	  0.563277	
8.41633	  0.071609	  0.291146	  0.580316	
8.4496	  0.069924	  0.279880	  0.598308	
8.48286	  0.069255	  0.270799	  0.615576	
8.51613	  0.069486	  0.264589	  0.631241	
8.5494	  0.070298	  0.261177	  0.644796	
8.58266	  0.071790	  0.261076	  0.655314	
8.61593	  0.074144	  0.264328	  0.662988	
8.64919	  0.076957	  0.269655	  0.669806	
8.68246	  0.079731	  0.275835	  0.674908	
8.71573	  0.081858	  0.281305	  0.671766	
8.74899	  0.083026	  0.285358	  0.659510	
8.78226	  0.083485	  0.288474	  0.645185	
8.81552	  0.083652	  0.291656	  0.633611	
8.84879	  0.083948	  0.295549	  0.626195	
8.88206	  0.084529	  0.299697	  0.622379	
8.91532	  0.085311	  0.303503	  0.621441	
8.94859	  0.086304	  0.307333	  0.622513	
8.98185	  0.087426	  0.312988	  0.625479	
9.01512	  0.088296	  0.320744	  0.630163	
9.04839	  0.088893	  0.329630	  0.636295	
9.08165	  0.089127	  0.336795	  0.644009	
9.11492	  0.088734	  0.340191	  0.654046	
9.14819	  0.087517	  0.338313	  0.667006	
9.18145	  0.085292	  0.330007	  0.681029	
9.21472	  0.082612	  0.317606	  0.694467	
9.24798	  0.079939	  0.303375	  0.706660	
9.28125	  0.077542	  0.287940	  0.715846	
9.31452	  0.076086	  0.274573	  0.718200	
9.34778	  0.075799	  0.265184	  0.710894	
9.38105	  0.076463	  0.260118	  0.696474	
9.41431	  0.077580	  0.259492	  0.680151	
9.44758	  0.078497	  0.261859	  0.662929	
9.48085	  0.078746	  0.264402	  0.647315	
9.51411	  0.078157	  0.265164	  0.637526	
9.54738	  0.076638	  0.263185	  0.633304	
9.58065	  0.074393	  0.259206	  0.632238	
9.61391	  0.072011	  0.254999	  0.630226	
9.64718	  0.069571	  0.250221	  0.623032	
9.68044	  0.066637	  0.243388	  0.605619	
9.71371	  0.063336	  0.234589	  0.576036	
9.74698	  0.059925	  0.224305	  0.538167	
9.78024	  0.056106	  0.211229	  0.495026	
9.81351	  0.051390	  0.194141	  0.446586	
9.84677	  0.045635	  0.172258	  0.393945	
9.88004	  0.039264	  0.146297	  0.338759	
9.91331	  0.032928	  0.119117	  0.283218	
9.94657	  0.027065	  0.093525	  0.229283	
9.97984	  0.022069	  0.071702	  0.179101	
10.0131	  0.018265	  0.054605	  0.134922	
10.0464	  0.015726	  0.042426	  0.098899	
10.0796	  0.014289	  0.035035	  0.071982	
10.1129	  0.013688	  0.031674	  0.053662	
10.1462	  0.013571	  0.031014	  0.042443	
10.1794	  0.013588	  0.031640	  0.036445	
10.2127	  0.013633	  0.032965	  0.033747	
10.246	  0.013742	  0.034685	  0.032970	
10.2792	  0.013955	  0.036556	  0.033331	
10.3125	  0.014270	  0.038142	  0.034319	
10.3458	  0.014626	  0.038799	  0.035574	
10.379	  0.014968	  0.038486	  0.036871	
10.4123	  0.015249	  0.037632	  0.038058	
10.4456	  0.015467	  0.036665	  0.039093	
10.4788	  0.015600	  0.035966	  0.039985	
10.5121	  0.015542	  0.035553	  0.040718	
10.5454	  0.015253	  0.035271	  0.041275	
10.5786	  0.014794	  0.034669	  0.041625	
10.6119	  0.014223	  0.033409	  0.041769	
10.6452	  0.013616	  0.031841	  0.041703	
10.6784	  0.013102	  0.030414	  0.041428	
10.7117	  0.012805	  0.029348	  0.041069	
